<?xml version="1.0" encoding="UTF-8"?>
<svg version="1.1" xmlns="http://www.w3.org/2000/svg" width="400" height="400">
<path d="M0 0 C7.23975895 5.47306009 12.28698144 12.85850171 14.2890625 21.73046875 C15.43503906 21.76785156 16.58101563 21.80523438 17.76171875 21.84375 C19.29169696 21.90945459 20.82164347 21.97590034 22.3515625 22.04296875 C23.47981445 22.07680664 23.47981445 22.07680664 24.63085938 22.11132812 C29.8366118 22.3592211 33.75419054 23.07521913 38.2890625 25.73046875 C40.85595494 29.91531286 41.6643534 33.07335037 41.66658592 37.9493103 C41.67440916 39.18371164 41.68223241 40.41811298 41.69029272 41.68992043 C41.6838072 43.0515824 41.67703726 44.41324304 41.67001343 45.77490234 C41.67347109 47.22773782 41.67823639 48.68057068 41.68419516 50.13339806 C41.69671996 54.12168375 41.69052809 58.10975411 41.68123651 62.09804058 C41.67445241 66.40076342 41.68492407 70.70344908 41.69317627 75.00616455 C41.70652262 83.43360558 41.70363184 91.86096649 41.69493835 100.28841066 C41.68816576 107.13700296 41.68724324 113.98557279 41.6905098 120.83416748 C41.6909695 121.80854936 41.69142919 122.78293124 41.69190282 123.78683984 C41.69286199 125.76622026 41.69383463 127.74560067 41.6948206 129.72498107 C41.70337713 148.28969748 41.69353622 166.85436946 41.6774195 185.41907859 C41.66401608 201.3516736 41.6663441 217.28420304 41.68017578 233.21679688 C41.69622693 251.71466209 41.70255314 270.21248836 41.69333899 288.71035957 C41.69238333 290.68249638 41.69144022 292.6546332 41.6905098 294.62677002 C41.69004697 295.59712263 41.68958414 296.56747525 41.68910729 297.56723249 C41.68651601 304.40833621 41.69089138 311.24941524 41.69794846 318.09051514 C41.70635848 326.42647698 41.70409379 334.76235406 41.68810622 343.09830618 C41.68021681 347.35219838 41.67714331 351.60594921 41.68705368 355.85984039 C41.69598723 359.75330384 41.69108997 363.64649475 41.67512102 367.53993344 C41.67176753 368.94900087 41.67348009 370.35809129 41.68074839 371.76714396 C41.68986852 373.68195581 41.67872128 375.59683209 41.66658592 377.5116272 C41.66585534 379.10726974 41.66585534 379.10726974 41.66510999 380.73514748 C41.21907064 384.28797312 40.13669271 386.67642577 38.2890625 389.73046875 C31.82104015 394.04657344 24.18552804 393.14896008 16.67553711 393.11141968 C15.17305378 393.11487813 13.67057299 393.11964395 12.1680975 393.12560141 C8.04718509 393.13811536 3.92648134 393.13193925 -0.19443178 393.12264276 C-4.64166961 393.11585423 -9.08887159 393.12633252 -13.53610229 393.13458252 C-22.24514989 393.14792413 -30.95411994 393.1450402 -39.66317058 393.1363446 C-46.74103987 393.12957015 -53.81888743 393.1286503 -60.89675903 393.13191605 C-61.90402103 393.13237575 -62.91128304 393.13283544 -63.94906813 393.13330907 C-65.99528528 393.13426825 -68.04150242 393.13524089 -70.08771956 393.13622685 C-89.27624618 393.144782 -108.46472981 393.13494464 -127.65324938 393.11882575 C-144.11878935 393.10542246 -160.58426587 393.10775052 -177.04980469 393.12158203 C-196.16955199 393.13763563 -215.2892616 393.14395801 -234.4090147 393.13474524 C-236.44771512 393.13378959 -238.48641554 393.13284648 -240.52511597 393.13191605 C-242.02974532 393.13122181 -242.02974532 393.13122181 -243.56477123 393.13051354 C-250.63434603 393.12792299 -257.70389692 393.13229605 -264.77346802 393.13935471 C-273.38861723 393.14776745 -282.00368443 393.1454943 -290.61882424 393.12951247 C-295.0146144 393.12162674 -299.41026782 393.11854333 -303.80605698 393.12845993 C-307.83029276 393.13740105 -311.85426508 393.13248365 -315.87847698 393.11652727 C-317.33396548 393.113177 -318.78947624 393.11487912 -320.24495041 393.12215464 C-334.52943539 393.18807981 -334.52943539 393.18807981 -339.7109375 389.73046875 C-342.25239957 385.52955542 -343.08622611 382.39259089 -343.08846092 377.5116272 C-343.09628416 376.27722586 -343.10410741 375.04282452 -343.11216772 373.77101707 C-343.1056822 372.4093551 -343.09891226 371.04769446 -343.09188843 369.68603516 C-343.09534609 368.23319968 -343.10011139 366.78036682 -343.10607016 365.32753944 C-343.11859496 361.33925375 -343.11240309 357.35118339 -343.10311151 353.36289692 C-343.09632741 349.06017408 -343.10679907 344.75748842 -343.11505127 340.45477295 C-343.12839762 332.02733192 -343.12550684 323.59997101 -343.11681335 315.17252684 C-343.11004076 308.32393454 -343.10911824 301.47536471 -343.1123848 294.62677002 C-343.1128445 293.65238814 -343.11330419 292.67800626 -343.11377782 291.67409766 C-343.11473699 289.69471724 -343.11570963 287.71533683 -343.1166956 285.73595643 C-343.12525213 267.17124002 -343.11541122 248.60656804 -343.0992945 230.04185891 C-343.08589108 214.1092639 -343.0882191 198.17673446 -343.10205078 182.24414062 C-343.11810193 163.74627541 -343.12442814 145.24844914 -343.11521399 126.75057793 C-343.11425833 124.77844112 -343.11331522 122.8063043 -343.1123848 120.83416748 C-343.11192197 119.86381487 -343.11145914 118.89346225 -343.11098229 117.89370501 C-343.10839101 111.05260129 -343.11276638 104.21152226 -343.11982346 97.37042236 C-343.12823348 89.03446052 -343.12596879 80.69858344 -343.10998122 72.36263132 C-343.10209181 68.10873912 -343.09901831 63.85498829 -343.10892868 59.60109711 C-343.11786223 55.70763366 -343.11296497 51.81444275 -343.09699602 47.92100406 C-343.09364253 46.51193663 -343.09535509 45.10284621 -343.10262339 43.69379354 C-343.11174352 41.77898169 -343.10059628 39.86410541 -343.08846092 37.9493103 C-343.08797387 36.88554861 -343.08748681 35.82178692 -343.08698499 34.72579002 C-342.64026247 31.16752281 -341.5729033 28.7833905 -339.7109375 25.73046875 C-333.89140721 22.12438357 -328.24431235 22.31328646 -321.54298401 22.3697052 C-320.42627679 22.36714193 -319.30956958 22.36457865 -318.15902275 22.3619377 C-314.42170431 22.35700111 -310.68479092 22.37349128 -306.94750977 22.38989258 C-304.26669913 22.39073888 -301.58591321 22.39039572 -298.90510559 22.38856506 C-293.1358732 22.38699411 -287.36674282 22.39638462 -281.59753609 22.41327858 C-273.25630985 22.43768824 -264.91513279 22.44547586 -256.5738747 22.44924255 C-243.03986314 22.45580395 -229.5059059 22.47575666 -215.97192383 22.50415039 C-202.82706982 22.53169902 -189.68223058 22.55292867 -176.53735352 22.56567383 C-175.32141792 22.56685608 -175.32141792 22.56685608 -174.08091796 22.56806222 C-170.01414511 22.57197741 -165.94737216 22.57576852 -161.88059914 22.57949793 C-128.1573392 22.61058415 -94.43414502 22.66341146 -60.7109375 22.73046875 C-60.51227585 22.04031677 -60.3136142 21.35016479 -60.1089325 20.63909912 C-59.71216057 19.28392181 -59.71216057 19.28392181 -59.30737305 17.90136719 C-59.0468364 17.00496521 -58.78629974 16.10856323 -58.51786804 15.18499756 C-56.03096255 7.62030536 -49.43436369 1.68259024 -42.7109375 -2.26953125 C-28.02658652 -9.2749097 -13.89476382 -8.93234817 0 0 Z " fill="#314CB0" transform="translate(350.7109375,7.26953125)"/>
<path d="M0 0 C28.71 0 57.42 0 87 0 C85.02 3.3 83.04 6.6 81 10 C77.3045442 19.85309102 77.61146412 29.41981469 77.70703125 39.79296875 C77.71263711 41.59328353 77.71690252 43.39360293 77.71989441 45.19392395 C77.73126532 49.89735896 77.76066435 54.60050929 77.79400635 59.30383301 C77.82487582 64.11722973 77.83843557 68.93067313 77.85351562 73.74414062 C77.88554262 83.16288444 77.93664341 92.58141841 78 102 C79.59826023 100.09020788 81.19542897 98.17952053 82.79199219 96.26831055 C83.24105927 95.73193718 83.69012634 95.19556381 84.15280151 94.64293671 C87.6477963 90.45659463 90.98444692 86.17821851 94.25 81.8125 C98.76280221 75.84240346 103.40442982 70.0056885 108.1875 64.25 C113.13453004 58.29581858 117.95388898 52.27634961 122.6328125 46.109375 C124.25595639 43.97732461 125.8903402 41.86464286 127.5546875 39.765625 C137.61249939 27.02966372 144.48339335 16.68267319 146 0 C176.36 0 206.72 0 238 0 C235.0645044 2.9354956 232.31663068 5.65767966 229.1875 8.3125 C221.25075457 15.22371091 214.57004167 22.79027495 208 31 C206.58546443 32.73091044 205.16877859 34.46006574 203.75 36.1875 C202.16613303 38.12456379 200.58285642 40.06211036 199 42 C198.26475098 42.89960449 198.26475098 42.89960449 197.51464844 43.81738281 C191.80272532 50.81035338 186.11481389 57.81685772 180.5625 64.9375 C175.87979411 70.94200683 171.0501267 76.81659477 166.19384766 82.68115234 C162.0910371 87.64653024 158.07948191 92.67300903 154.11987305 97.75292969 C150.57150848 102.29660694 146.95303436 106.77993042 143.3125 111.25 C142.7649707 111.92458252 142.21744141 112.59916504 141.65332031 113.29418945 C139.25575758 116.24545428 136.850385 119.18745414 134.3984375 122.09375 C133.66882813 122.9703125 132.93921875 123.846875 132.1875 124.75 C131.56230469 125.48734375 130.93710938 126.2246875 130.29296875 126.984375 C128.64004474 129.16202468 128.64004474 129.16202468 129 133 C130.063022 134.9870127 130.063022 134.9870127 131.60546875 136.9140625 C132.17015869 137.6656665 132.73484863 138.41727051 133.31665039 139.19165039 C133.93403076 139.99465576 134.55141113 140.79766113 135.1875 141.625 C136.48261909 143.34441348 137.77687037 145.06448091 139.0703125 146.78515625 C139.7293457 147.65672363 140.38837891 148.52829102 141.06738281 149.42626953 C143.95169825 153.26740816 146.75999733 157.16147485 149.5625 161.0625 C150.63797837 162.5547181 151.71349926 164.04690557 152.7890625 165.5390625 C154.394446 167.76903289 155.99946914 169.99926236 157.60449219 172.22949219 C163.75329179 180.77052993 169.93305997 189.28591764 176.1875 197.75 C180.18494299 203.16022895 184.1623386 208.58164588 188.0625 214.0625 C188.45421387 214.61284912 188.84592773 215.16319824 189.24951172 215.73022461 C190.06156779 216.87155048 190.87357847 218.01290864 191.68554688 219.15429688 C212.24033663 249.64811411 212.24033663 249.64811411 237.671875 275.86328125 C238.11015625 276.23839844 238.5484375 276.61351562 239 277 C239 277.33 239 277.66 239 278 C207.65 278 176.3 278 144 278 C143.67 273.05 143.34 268.1 143 263 C139.94697018 253.35541343 133.48903329 244.99276373 127.47021484 236.96484375 C125.88018963 234.83988146 124.30796961 232.70252529 122.73828125 230.5625 C119.77198228 226.52068114 116.79481447 222.4870231 113.81445312 218.45556641 C110.87205311 214.47350783 107.93632289 210.48654057 105 206.5 C103.8437721 204.9309733 102.68752202 203.36196294 101.53125 201.79296875 C99.09281451 198.48376085 96.65547455 195.17374918 94.21875 191.86328125 C93.59613281 191.01765625 92.97351563 190.17203125 92.33203125 189.30078125 C91.15205609 187.69812842 89.97234764 186.09527917 88.79296875 184.4921875 C88.25285156 183.75871094 87.71273437 183.02523437 87.15625 182.26953125 C86.69025391 181.63635986 86.22425781 181.00318848 85.74414062 180.35083008 C83.17659669 176.8901805 80.58768035 173.44560693 78 170 C77.95352704 180.77951411 77.91805503 191.55900412 77.89637566 202.33859825 C77.88596727 207.3447462 77.87186216 212.35082527 77.84912109 217.35693359 C77.82728731 222.19394222 77.81540925 227.03088487 77.81024551 231.867939 C77.8065686 233.70738386 77.79938879 235.54682537 77.78853989 237.38624191 C77.47680525 253.4947858 77.47680525 253.4947858 81.9375 268.8125 C82.25589844 269.49957031 82.57429688 270.18664062 82.90234375 270.89453125 C84.16628383 273.31895724 85.59330934 275.65551557 87 278 C58.29 278 29.58 278 0 278 C2 274 2 274 3.9375 271.375 C8.46083247 263.97318323 9.44509795 256.33243685 9.38768005 247.79811096 C9.39306559 246.82135892 9.39845113 245.84460688 9.40399987 244.8382563 C9.41821405 241.5919908 9.41119185 238.34613685 9.40405273 235.09985352 C9.40975969 232.76157302 9.4167252 230.42329531 9.42485046 228.08502197 C9.44276031 221.75239256 9.44161759 215.41990188 9.43590808 209.08725476 C9.43242123 203.12347353 9.44038526 197.15970928 9.44726873 191.19593333 C9.46097381 178.66326326 9.45556998 166.13065573 9.44408352 153.59798711 C9.43415178 142.15054027 9.44709426 130.70325507 9.47101771 119.25583316 C9.49544151 107.47958744 9.50500863 95.7034169 9.49836498 83.92714638 C9.49488022 77.32445725 9.49739341 70.72187648 9.51461601 64.11920357 C9.53010679 57.90976084 9.52610552 51.70062632 9.50731087 45.49119568 C9.50363104 43.21726477 9.50671567 40.94331091 9.51719666 38.66940117 C9.58361549 23.06362695 8.4443867 13.51101871 0 0 Z " fill="#FDFDFE" transform="translate(33,80)"/>
<path d="M0 0 C7.23975895 5.47306009 12.28698144 12.85850171 14.2890625 21.73046875 C15.43503906 21.76785156 16.58101563 21.80523438 17.76171875 21.84375 C19.29169696 21.90945459 20.82164347 21.97590034 22.3515625 22.04296875 C23.47981445 22.07680664 23.47981445 22.07680664 24.63085938 22.11132812 C29.8366118 22.3592211 33.75419054 23.07521913 38.2890625 25.73046875 C40.85595494 29.91531286 41.6643534 33.07335037 41.66658592 37.9493103 C41.67440916 39.18371164 41.68223241 40.41811298 41.69029272 41.68992043 C41.6838072 43.0515824 41.67703726 44.41324304 41.67001343 45.77490234 C41.67347109 47.22773782 41.67823639 48.68057068 41.68419516 50.13339806 C41.69671996 54.12168375 41.69052809 58.10975411 41.68123651 62.09804058 C41.67445241 66.40076342 41.68492407 70.70344908 41.69317627 75.00616455 C41.70652262 83.43360558 41.70363184 91.86096649 41.69493835 100.28841066 C41.68816576 107.13700296 41.68724324 113.98557279 41.6905098 120.83416748 C41.6909695 121.80854936 41.69142919 122.78293124 41.69190282 123.78683984 C41.69286199 125.76622026 41.69383463 127.74560067 41.6948206 129.72498107 C41.70337713 148.28969748 41.69353622 166.85436946 41.6774195 185.41907859 C41.66401608 201.3516736 41.6663441 217.28420304 41.68017578 233.21679688 C41.69622693 251.71466209 41.70255314 270.21248836 41.69333899 288.71035957 C41.69238333 290.68249638 41.69144022 292.6546332 41.6905098 294.62677002 C41.69004697 295.59712263 41.68958414 296.56747525 41.68910729 297.56723249 C41.68651601 304.40833621 41.69089138 311.24941524 41.69794846 318.09051514 C41.70635848 326.42647698 41.70409379 334.76235406 41.68810622 343.09830618 C41.68021681 347.35219838 41.67714331 351.60594921 41.68705368 355.85984039 C41.69598723 359.75330384 41.69108997 363.64649475 41.67512102 367.53993344 C41.67176753 368.94900087 41.67348009 370.35809129 41.68074839 371.76714396 C41.68986852 373.68195581 41.67872128 375.59683209 41.66658592 377.5116272 C41.66585534 379.10726974 41.66585534 379.10726974 41.66510999 380.73514748 C41.21907064 384.28797312 40.13669271 386.67642577 38.2890625 389.73046875 C31.82104015 394.04657344 24.18552804 393.14896008 16.67553711 393.11141968 C15.17305378 393.11487813 13.67057299 393.11964395 12.1680975 393.12560141 C8.04718509 393.13811536 3.92648134 393.13193925 -0.19443178 393.12264276 C-4.64166961 393.11585423 -9.08887159 393.12633252 -13.53610229 393.13458252 C-22.24514989 393.14792413 -30.95411994 393.1450402 -39.66317058 393.1363446 C-46.74103987 393.12957015 -53.81888743 393.1286503 -60.89675903 393.13191605 C-61.90402103 393.13237575 -62.91128304 393.13283544 -63.94906813 393.13330907 C-65.99528528 393.13426825 -68.04150242 393.13524089 -70.08771956 393.13622685 C-89.27624618 393.144782 -108.46472981 393.13494464 -127.65324938 393.11882575 C-144.11878935 393.10542246 -160.58426587 393.10775052 -177.04980469 393.12158203 C-196.16955199 393.13763563 -215.2892616 393.14395801 -234.4090147 393.13474524 C-236.44771512 393.13378959 -238.48641554 393.13284648 -240.52511597 393.13191605 C-242.02974532 393.13122181 -242.02974532 393.13122181 -243.56477123 393.13051354 C-250.63434603 393.12792299 -257.70389692 393.13229605 -264.77346802 393.13935471 C-273.38861723 393.14776745 -282.00368443 393.1454943 -290.61882424 393.12951247 C-295.0146144 393.12162674 -299.41026782 393.11854333 -303.80605698 393.12845993 C-307.83029276 393.13740105 -311.85426508 393.13248365 -315.87847698 393.11652727 C-317.33396548 393.113177 -318.78947624 393.11487912 -320.24495041 393.12215464 C-334.52943539 393.18807981 -334.52943539 393.18807981 -339.7109375 389.73046875 C-342.25239957 385.52955542 -343.08622611 382.39259089 -343.08846092 377.5116272 C-343.09628416 376.27722586 -343.10410741 375.04282452 -343.11216772 373.77101707 C-343.1056822 372.4093551 -343.09891226 371.04769446 -343.09188843 369.68603516 C-343.09534609 368.23319968 -343.10011139 366.78036682 -343.10607016 365.32753944 C-343.11859496 361.33925375 -343.11240309 357.35118339 -343.10311151 353.36289692 C-343.09632741 349.06017408 -343.10679907 344.75748842 -343.11505127 340.45477295 C-343.12839762 332.02733192 -343.12550684 323.59997101 -343.11681335 315.17252684 C-343.11004076 308.32393454 -343.10911824 301.47536471 -343.1123848 294.62677002 C-343.1128445 293.65238814 -343.11330419 292.67800626 -343.11377782 291.67409766 C-343.11473699 289.69471724 -343.11570963 287.71533683 -343.1166956 285.73595643 C-343.12525213 267.17124002 -343.11541122 248.60656804 -343.0992945 230.04185891 C-343.08589108 214.1092639 -343.0882191 198.17673446 -343.10205078 182.24414062 C-343.11810193 163.74627541 -343.12442814 145.24844914 -343.11521399 126.75057793 C-343.11425833 124.77844112 -343.11331522 122.8063043 -343.1123848 120.83416748 C-343.11192197 119.86381487 -343.11145914 118.89346225 -343.11098229 117.89370501 C-343.10839101 111.05260129 -343.11276638 104.21152226 -343.11982346 97.37042236 C-343.12823348 89.03446052 -343.12596879 80.69858344 -343.10998122 72.36263132 C-343.10209181 68.10873912 -343.09901831 63.85498829 -343.10892868 59.60109711 C-343.11786223 55.70763366 -343.11296497 51.81444275 -343.09699602 47.92100406 C-343.09364253 46.51193663 -343.09535509 45.10284621 -343.10262339 43.69379354 C-343.11174352 41.77898169 -343.10059628 39.86410541 -343.08846092 37.9493103 C-343.08797387 36.88554861 -343.08748681 35.82178692 -343.08698499 34.72579002 C-342.64026247 31.16752281 -341.5729033 28.7833905 -339.7109375 25.73046875 C-333.89140721 22.12438357 -328.24431235 22.31328646 -321.54298401 22.3697052 C-320.42627679 22.36714193 -319.30956958 22.36457865 -318.15902275 22.3619377 C-314.42170431 22.35700111 -310.68479092 22.37349128 -306.94750977 22.38989258 C-304.26669913 22.39073888 -301.58591321 22.39039572 -298.90510559 22.38856506 C-293.1358732 22.38699411 -287.36674282 22.39638462 -281.59753609 22.41327858 C-273.25630985 22.43768824 -264.91513279 22.44547586 -256.5738747 22.44924255 C-243.03986314 22.45580395 -229.5059059 22.47575666 -215.97192383 22.50415039 C-202.82706982 22.53169902 -189.68223058 22.55292867 -176.53735352 22.56567383 C-175.32141792 22.56685608 -175.32141792 22.56685608 -174.08091796 22.56806222 C-170.01414511 22.57197741 -165.94737216 22.57576852 -161.88059914 22.57949793 C-128.1573392 22.61058415 -94.43414502 22.66341146 -60.7109375 22.73046875 C-60.51227585 22.04031677 -60.3136142 21.35016479 -60.1089325 20.63909912 C-59.71216057 19.28392181 -59.71216057 19.28392181 -59.30737305 17.90136719 C-59.0468364 17.00496521 -58.78629974 16.10856323 -58.51786804 15.18499756 C-56.03096255 7.62030536 -49.43436369 1.68259024 -42.7109375 -2.26953125 C-28.02658652 -9.2749097 -13.89476382 -8.93234817 0 0 Z M-326.7109375 38.73046875 C-326.7109375 150.27046875 -326.7109375 261.81046875 -326.7109375 376.73046875 C-210.5509375 376.73046875 -94.3909375 376.73046875 25.2890625 376.73046875 C25.2890625 265.19046875 25.2890625 153.65046875 25.2890625 38.73046875 C21.3290625 38.73046875 17.3690625 38.73046875 13.2890625 38.73046875 C12.7734375 40.35984375 12.2578125 41.98921875 11.7265625 43.66796875 C7.81014783 54.32171215 1.24487124 60.65215126 -8.72265625 65.76171875 C-17.15624255 69.23153711 -28.69411333 69.2515599 -37.2109375 66.10546875 C-49.94718936 59.99377742 -54.84506012 51.63539899 -60.7109375 38.73046875 C-148.4909375 38.73046875 -236.2709375 38.73046875 -326.7109375 38.73046875 Z " fill="#1D2D68" transform="translate(350.7109375,7.26953125)"/>
<path d="M0 0 C24.09 0 48.18 0 73 0 C73.0093457 5.67823975 73.01869141 11.35647949 73.02832031 17.20678711 C73.06207295 35.95836107 73.11741135 54.70982529 73.18390274 73.46131039 C73.22369233 84.83138703 73.25608527 96.20139447 73.27099609 107.5715332 C73.28401297 117.48309316 73.31097871 127.39450083 73.35461307 137.30597502 C73.3772269 142.55282829 73.39291072 147.79949374 73.39188385 153.04640007 C73.3911372 157.9884936 73.40909015 162.93017196 73.44116783 167.87215805 C73.44966203 169.68248539 73.45142003 171.49285931 73.44580269 173.30319786 C73.41605976 184.36509389 73.84849451 193.06061814 81 202 C81 202.66 81 203.32 81 204 C54.27 204 27.54 204 0 204 C0.99 202.02 0.99 202.02 2 200 C2.69553776 198.46194292 3.38293124 196.92017917 4.0625 195.375 C5.00792072 193.22728953 5.95057213 191.09885575 7 189 C7.10754605 186.73410671 7.14838612 184.46497476 7.16062927 182.19656372 C7.16571709 181.4887 7.17080491 180.78083627 7.17604691 180.05152214 C7.19180698 177.66732535 7.20030602 175.28315896 7.20874023 172.89892578 C7.21827633 171.19398301 7.22816738 169.4890422 7.23838806 167.78410339 C7.26981866 162.17119657 7.29005341 156.55827477 7.30859375 150.9453125 C7.31189107 149.98992506 7.31518839 149.03453761 7.31858563 148.05019903 C7.3493825 139.03547406 7.37608638 130.02074577 7.39300442 121.00598335 C7.41488044 109.48455282 7.45677244 97.9635902 7.52644199 86.44234669 C7.57377961 78.33772998 7.59795149 70.233239 7.6052013 62.12848842 C7.6101453 57.29107191 7.62510518 52.45418223 7.6649456 47.61691666 C7.70199517 43.0580301 7.71016206 38.49996718 7.69693947 33.94095802 C7.69699312 32.27535382 7.70716947 30.60971145 7.7286911 28.94424629 C7.85463186 18.63993967 6.6164027 10.95270889 1 2 C0.67 1.34 0.34 0.68 0 0 Z " fill="#FEFEFE" transform="translate(287,154)"/>
<path d="M0 0 C7.02931309 5.31396877 12.66893842 12.93334641 14.2890625 21.73046875 C15.14800858 35.14974108 14.20229626 46.04421683 5.1953125 56.73046875 C-2.23650271 64.52778307 -10.82965551 68.73032087 -21.68359375 69.203125 C-33.87875163 69.36268781 -42.55213633 65.46617293 -51.36328125 57.17578125 C-58.72341629 49.34744424 -61.15887017 41.15634322 -61.2734375 30.60546875 C-61.28810059 29.77055908 -61.30276367 28.93564941 -61.31787109 28.07543945 C-61.16222991 18.55976267 -57.06603484 10.6887119 -50.7109375 3.73046875 C-36.25572534 -9.7589857 -16.31857295 -10.49051119 0 0 Z " fill="#FE7600" transform="translate(350.7109375,7.26953125)"/>
</svg>
