<?xml version="1.0" encoding="UTF-8"?>
<svg version="1.1" xmlns="http://www.w3.org/2000/svg" width="1506" height="1536">
<path d="M0 0 C2.33187941 -0.00390663 4.66375812 -0.00824516 6.99563599 -0.01298523 C11.85128091 -0.02037927 16.70685305 -0.02020771 21.5625 -0.01489258 C26.4665649 -0.01027123 31.37038124 -0.01715153 36.27441406 -0.03540039 C63.37914027 -0.13540265 90.13832772 0.0235567 117.0703125 3.30078125 C119.05852017 3.52888302 121.04673059 3.75696515 123.03513527 3.98334312 C162.51596309 8.49040767 201.76637446 16.21475848 239.86328125 27.50390625 C243.88547966 28.69265189 247.9104055 29.7700009 251.98828125 30.75 C258.84402868 32.4335136 265.50644352 34.61552292 272.1953125 36.86328125 C272.83739655 37.0781015 273.47948059 37.29292175 274.14102173 37.51425171 C289.39072349 42.62661187 304.72606483 47.90669171 319.30859375 54.71875 C323.7268692 56.76699648 328.22321451 58.49712844 332.796875 60.16015625 C340.93007038 63.14054006 348.67818534 66.72938486 356.4453125 70.55078125 C357.11663208 70.87815277 357.78795166 71.20552429 358.47961426 71.54281616 C367.80711245 76.0914843 376.98648673 80.84019557 385.9921875 86 C389.52556301 88.01968017 393.12188944 89.88705758 396.74658203 91.73657227 C405.72101637 96.3293932 414.36402019 101.39404364 422.9453125 106.67578125 C424.069375 107.36623535 425.1934375 108.05668945 426.3515625 108.76806641 C431.14845977 111.74643191 435.67816287 114.74754516 440.0703125 118.30078125 C441.84347447 119.35342876 443.63667063 120.37283451 445.4453125 121.36328125 C452.32674163 125.31947437 458.59113573 129.93931508 464.93115234 134.70166016 C467.255731 136.43939015 469.59307533 138.15880372 471.93359375 139.875 C472.76560303 140.48529053 473.5976123 141.09558105 474.45483398 141.72436523 C476.06485784 142.90509148 477.67503604 144.08560732 479.28540039 145.26586914 C487.48494655 151.29926523 495.47580007 157.56322731 503.3203125 164.05078125 C504.05266113 164.65567383 504.78500977 165.26056641 505.53955078 165.88378906 C515.04234551 173.74517316 524.45834411 181.65383519 533.546875 189.99609375 C537.00535112 193.15476389 540.52860988 196.23604145 544.0703125 199.30078125 C542.54260286 203.05604517 540.28408944 205.1510875 537.2578125 207.80078125 C535.97970703 208.93 535.97970703 208.93 534.67578125 210.08203125 C532.95469261 211.54766595 531.20450294 212.97987265 529.42578125 214.375 C527.39248944 216.03737622 525.84230957 217.58942891 524.1953125 219.61328125 C520.52184513 223.90033878 516.6054716 227.91837729 512.6328125 231.92578125 C511.70202881 232.87578003 511.70202881 232.87578003 510.75244141 233.8449707 C507.6674823 236.93679245 504.59311104 239.72289387 501.03515625 242.26171875 C497.45285979 244.86324626 494.74715414 247.77697643 491.91015625 251.15917969 C488.50944886 255.11764641 484.76779595 258.74690929 481.0703125 262.42578125 C480.30203125 263.19792969 479.53375 263.97007812 478.7421875 264.765625 C474.82015888 268.6809835 470.86387546 272.4556709 466.57202148 275.96459961 C464.91576708 277.43829175 463.53834727 279.02607064 462.1328125 280.73828125 C459.45004577 283.98025265 456.48852781 286.62220415 453.28515625 289.33984375 C449.84614331 292.38461358 446.66981509 295.68093611 443.46484375 298.96875 C441.0703125 301.30078125 441.0703125 301.30078125 438.45703125 303.3828125 C436.33517963 305.08793385 434.76919856 306.69563983 433.0703125 308.80078125 C426.5464265 316.43572207 418.75766346 322.97257186 411.1953125 329.55078125 C407.85008369 332.50280957 404.96005024 335.63325908 402.078125 339.03125 C385.32588145 357.96715175 385.32588145 357.96715175 377.9765625 361.23046875 C375.94595406 362.12519529 375.94595406 362.12519529 375.27392578 364.03051758 C373.6533393 367.08727897 371.34590679 369.29146438 368.90625 371.6953125 C368.39534821 372.20575607 367.88444641 372.71619965 367.35806274 373.24211121 C366.27606658 374.32109182 365.19164651 375.39764649 364.10498047 376.47192383 C362.46662974 378.0921992 360.83624313 379.72015057 359.20703125 381.34960938 C354.24530724 386.29377833 349.23182771 391.11556133 343.90283203 395.66674805 C339.81162765 399.31482038 336.10054221 403.39263084 332.36328125 407.3984375 C331.73550781 408.04683594 331.10773438 408.69523437 330.4609375 409.36328125 C329.90438477 409.95238281 329.34783203 410.54148437 328.77441406 411.1484375 C327.0703125 412.30078125 327.0703125 412.30078125 324.9675293 412.06152344 C322.78067937 411.18464474 321.38583509 410.12161904 319.6328125 408.55078125 C319.024375 408.00808594 318.4159375 407.46539062 317.7890625 406.90625 C315.49240789 404.76096581 313.2924932 402.52296195 311.0703125 400.30078125 C305.96043625 395.53156342 300.52938157 391.38595246 294.84375 387.328125 C292.25848727 385.43833435 289.78915165 383.46400892 287.3203125 381.42578125 C268.96796734 366.66969657 247.78313525 355.07768221 226.9453125 344.23828125 C225.78563965 343.63153564 224.6259668 343.02479004 223.43115234 342.3996582 C215.15444749 338.15647772 206.74213691 334.62634915 198.0703125 331.30078125 C197.07016113 330.91043701 196.07000977 330.52009277 195.03955078 330.11791992 C172.18715809 321.23353018 149.0206449 313.62054412 125.0703125 308.30078125 C123.52947998 307.95853516 123.52947998 307.95853516 121.95751953 307.609375 C102.46871283 303.39948002 82.91940417 301.65200457 63.0703125 300.30078125 C61.53624756 300.1927417 61.53624756 300.1927417 59.97119141 300.08251953 C54.33912916 299.69765684 48.71380203 299.43690562 43.0703125 299.30078125 C42.1848877 299.27886719 41.29946289 299.25695312 40.38720703 299.234375 C22.54894611 298.86689151 4.79737482 299.83434966 -12.99169922 301.03613281 C-15.3730723 301.19617053 -17.7548311 301.35077473 -20.13720703 301.49511719 C-59.16380824 303.88078751 -97.56123955 315.50108591 -133.9296875 329.30078125 C-135.66267574 329.94684178 -137.39574237 330.59269206 -139.12890625 331.23828125 C-170.27382239 342.96384222 -200.98042488 359.11366895 -227.82958984 378.77441406 C-231.5174684 381.45479266 -235.25898864 384.05909904 -238.9921875 386.67578125 C-243.83818365 390.0737339 -248.59903534 393.54109014 -253.26342773 397.18603516 C-254.9296875 398.30078125 -254.9296875 398.30078125 -256.9296875 398.30078125 C-257.13078125 398.84734375 -257.331875 399.39390625 -257.5390625 399.95703125 C-259.49158835 403.24780515 -262.26535437 405.39571849 -265.1796875 407.80078125 C-266.45183325 408.87238357 -267.72396836 409.94399851 -268.99609375 411.015625 C-270.30705878 412.11095587 -271.61825424 413.20601103 -272.9296875 414.30078125 C-283.68959031 423.31798284 -293.9317705 432.48395355 -303.05078125 443.20703125 C-306.2524754 446.77482349 -309.7332677 450.06939846 -313.18359375 453.39453125 C-315.84781797 456.21413696 -318.1086402 459.11283215 -320.39624023 462.23486328 C-322.87774018 465.57803356 -325.53647493 468.77262001 -328.1796875 471.98828125 C-330.43415858 474.75549743 -332.68343961 477.52688666 -334.9296875 480.30078125 C-335.62747314 481.16243896 -335.62747314 481.16243896 -336.33935547 482.04150391 C-342.31917526 489.47545122 -347.47395244 497.1524856 -352.4375 505.28125 C-354.39946321 508.48150146 -356.45758392 511.59688017 -358.57788086 514.69384766 C-370.15019668 531.62051855 -379.37814547 549.70052356 -387.9296875 568.30078125 C-388.33316406 569.1712207 -388.73664063 570.04166016 -389.15234375 570.93847656 C-391.81647108 576.69536557 -394.40480894 582.48151507 -396.9296875 588.30078125 C-397.27628418 589.09484375 -397.62288086 589.88890625 -397.97998047 590.70703125 C-403.47227402 603.42005267 -407.44964779 616.31791043 -410.97167969 629.69970703 C-411.82059719 632.89071958 -412.69393852 636.07320203 -413.57943726 639.25415039 C-420.74238311 665.00907342 -426.10774767 690.74015887 -429.2421875 717.30078125 C-429.36456284 718.3376709 -429.36456284 718.3376709 -429.4894104 719.39550781 C-431.29172801 734.93261626 -432.16504899 750.41900316 -432.1796875 766.05078125 C-432.18069458 766.81380554 -432.18170166 767.57682983 -432.18273926 768.36297607 C-432.15954751 794.83771629 -429.70570099 821.25911917 -424.9296875 847.30078125 C-424.75211914 848.27273438 -424.57455078 849.2446875 -424.39160156 850.24609375 C-421.39216871 866.28584164 -417.27192024 882.02192094 -412.91308594 897.73828125 C-412.01722703 900.98365691 -411.14655213 904.23466049 -410.28125 907.48828125 C-403.27316521 933.28207599 -392.32732831 957.42744925 -380.43212891 981.27685547 C-379.17446563 983.8081225 -377.93964467 986.34747612 -376.72265625 988.8984375 C-369.56057559 1003.81055823 -361.18058149 1018.31269677 -351.3125 1031.59814453 C-348.76569602 1035.04278014 -346.60623621 1038.54289635 -344.5546875 1042.30078125 C-340.67297555 1049.18324926 -335.55571578 1054.80980087 -330.33837891 1060.69042969 C-327.72497047 1063.67795863 -325.27651441 1066.79346307 -322.8203125 1069.91015625 C-321.45092085 1071.64170106 -320.06304635 1073.35868113 -318.6640625 1075.06640625 C-317.92671875 1075.96875 -317.189375 1076.87109375 -316.4296875 1077.80078125 C-315.759375 1078.61546875 -315.0890625 1079.43015625 -314.3984375 1080.26953125 C-312.9296875 1082.30078125 -312.9296875 1082.30078125 -312.9296875 1084.30078125 C-312.34340576 1084.55730469 -311.75712402 1084.81382813 -311.15307617 1085.078125 C-308.72404539 1086.41386522 -307.23721362 1087.83532924 -305.35546875 1089.86328125 C-304.69224609 1090.57315186 -304.02902344 1091.28302246 -303.34570312 1092.0144043 C-302.30446289 1093.14616089 -302.30446289 1093.14616089 -301.2421875 1094.30078125 C-300.52611328 1095.0688208 -299.81003906 1095.83686035 -299.07226562 1096.62817383 C-295.29245875 1100.69369366 -291.58353079 1104.80971791 -287.9296875 1108.98828125 C-284.89958489 1112.39000021 -281.81126603 1115.06557762 -278.09375 1117.6796875 C-273.40975363 1121.18845734 -269.22850441 1125.33751264 -264.9296875 1129.30078125 C-254.0477208 1139.25354776 -241.8576603 1147.54261222 -229.79931641 1155.98486328 C-228.27625089 1157.05685638 -226.76350385 1158.1434979 -225.25390625 1159.234375 C-204.420646 1174.23864016 -181.09447353 1186.3345728 -157.9296875 1197.30078125 C-157.32141113 1197.58969238 -156.71313477 1197.87860352 -156.08642578 1198.17626953 C-144.99537573 1203.3818002 -133.52895996 1207.38438563 -121.92529297 1211.28466797 C-119.02381543 1212.26885293 -116.1344277 1213.28266164 -113.24609375 1214.3046875 C-66.99619463 1230.47319084 -19.759106 1236.76377501 29.1328125 1236.61328125 C30.3767981 1236.61145844 31.62078369 1236.60963562 32.90246582 1236.60775757 C104.19478304 1236.43349452 173.99663735 1224.57171694 238.65161133 1193.3815918 C240.49930213 1192.49237693 242.35199286 1191.61423431 244.20507812 1190.73632812 C251.49868766 1187.24580722 258.35657804 1183.40106092 265.20141602 1179.08374023 C268.66297708 1176.93245265 272.18404071 1175.07661866 275.8203125 1173.23828125 C281.78784936 1170.13686774 286.8983475 1166.57566205 292.0703125 1162.30078125 C293.89674306 1160.91662536 295.73072523 1159.54240292 297.5703125 1158.17578125 C299.1434835 1156.99540199 300.71664125 1155.815005 302.28955078 1154.63427734 C303.54405827 1153.69485866 304.80041748 1152.75791027 306.05810547 1151.82275391 C315.39296424 1144.87310876 324.22135211 1137.68808731 332.63867188 1129.65136719 C334.80180325 1127.61070505 337.03113377 1125.64659938 339.2578125 1123.67578125 C346.25351029 1117.39555256 352.94979377 1110.81455147 359.05078125 1103.65625 C360.65732052 1101.78247209 362.28552313 1099.93838013 363.93359375 1098.1015625 C371.68605797 1089.40390721 378.67641738 1080.34013872 385.33740234 1070.78417969 C386.53204958 1069.07215493 387.7333059 1067.36472946 388.93994141 1065.66113281 C397.17151139 1054.03495078 404.55156049 1042.36658867 410.90087891 1029.61425781 C412.47980539 1026.49068633 414.1461188 1023.41716341 415.80932617 1020.33789062 C417.94846838 1016.35200397 420.02111289 1012.33354205 422.0703125 1008.30078125 C422.4828125 1007.48899414 422.8953125 1006.67720703 423.3203125 1005.84082031 C437.72312857 977.02393598 445.50409426 944.84268462 451.0703125 913.30078125 C311.4803125 913.30078125 171.8903125 913.30078125 28.0703125 913.30078125 C28.0703125 818.92078125 28.0703125 724.54078125 28.0703125 627.30078125 C266.6603125 627.30078125 505.2503125 627.30078125 751.0703125 627.30078125 C754.15047262 640.23745375 757.09250125 652.90470548 759.1953125 665.98828125 C759.32071411 666.75659271 759.44611572 667.52490417 759.57531738 668.3164978 C765.59358253 705.26839877 767.43492299 741.97907178 767.38598633 779.35717773 C767.38137621 783.17500662 767.38821976 786.99251522 767.40649414 790.81030273 C767.56892277 825.1232299 766.10708368 859.29336944 761.8203125 893.36328125 C761.71804352 894.19869446 761.61577454 895.03410767 761.51040649 895.89483643 C756.82069217 934.0201576 749.57630906 971.80356243 739.4921875 1008.875 C738.47755089 1012.62591531 737.59292142 1016.39468642 736.74281311 1020.18612671 C734.53219201 1029.95960955 731.61171867 1039.38325257 728.3828125 1048.86328125 C727.84915493 1050.44665252 727.3156281 1052.03006785 726.78222656 1053.61352539 C722.79704027 1065.39040372 718.56711069 1077.0620219 714.08203125 1088.65820312 C713.09587301 1091.23401797 712.14075878 1093.81915472 711.1953125 1096.41015625 C703.01715104 1118.67411912 692.97307897 1140.24947162 682.0703125 1161.30078125 C681.67279785 1162.07502441 681.2752832 1162.84926758 680.86572266 1163.64697266 C671.91621588 1181.0597957 662.38208921 1198.05777288 651.58374023 1214.39624023 C648.67839695 1218.7958607 645.90705584 1223.20677287 643.3203125 1227.80078125 C640.13134023 1233.37954297 636.38156235 1238.38462167 632.46435547 1243.46923828 C629.61728688 1247.20981771 626.85194457 1251.0114566 624.0703125 1254.80078125 C621.73827009 1257.9683998 619.40458468 1261.13480557 617.0703125 1264.30078125 C616.62091309 1264.91050781 616.17151367 1265.52023437 615.70849609 1266.1484375 C608.30397622 1276.17520631 600.56979077 1285.77810418 592.07763672 1294.89941406 C589.34455503 1297.85239888 586.77883583 1300.86696687 584.3203125 1304.05078125 C580.63324533 1308.7510301 576.64291173 1313.12349554 572.5703125 1317.48828125 C571.95317383 1318.15375977 571.33603516 1318.81923828 570.70019531 1319.50488281 C566.9514781 1323.48727601 563.05836648 1327.1611488 558.87402344 1330.68408203 C557.02359167 1332.34265799 555.42663674 1334.09460869 553.8203125 1335.98828125 C546.99822429 1343.9941108 539.59311784 1351.39676439 531.140625 1357.66796875 C528.97943759 1359.37245241 527.10953683 1361.19955775 525.1953125 1363.17578125 C515.93396524 1372.65419134 504.85181083 1380.42954498 494.38134766 1388.51318359 C492.18299338 1390.213622 489.99135235 1391.92236657 487.80078125 1393.6328125 C473.94507498 1404.40425055 459.60290709 1414.32668958 444.54785156 1423.3503418 C440.49035156 1425.78883715 436.53806076 1428.31251223 432.65039062 1431.01293945 C423.22330926 1437.54809434 413.12780939 1442.65582714 402.91552734 1447.84570312 C398.6312126 1450.03675477 394.38347893 1452.29537922 390.1328125 1454.55078125 C381.83939065 1458.92618695 373.49538397 1463.18454376 365.0703125 1467.30078125 C364.37164063 1467.64383301 363.67296875 1467.98688477 362.953125 1468.34033203 C360.78818534 1469.39886638 358.61778942 1470.4453143 356.4453125 1471.48828125 C355.81351074 1471.79717285 355.18170898 1472.10606445 354.53076172 1472.42431641 C349.06523085 1475.01861805 343.4213147 1476.98011287 337.71630859 1478.98168945 C333.15400045 1480.63229551 328.69069224 1482.48072689 324.21264648 1484.34545898 C241.59152796 1518.53054176 147.42921106 1536.32447623 58.05078125 1536.50390625 C57.07640924 1536.50673363 56.10203724 1536.509561 55.09813881 1536.51247406 C49.92667003 1536.52734744 44.75522822 1536.5366477 39.58374023 1536.54101562 C35.40038174 1536.5453685 31.21723318 1536.55915326 27.03393555 1536.58203125 C0.54836292 1536.72382192 -25.57874576 1536.04726344 -51.9296875 1533.30078125 C-52.96598297 1533.19600464 -54.00227844 1533.09122803 -55.06997681 1532.98327637 C-60.53556705 1532.42384565 -65.98405397 1531.77812773 -71.4296875 1531.05078125 C-72.21366913 1530.94817993 -72.99765076 1530.84557861 -73.8053894 1530.73986816 C-98.87419416 1527.43491061 -123.57671692 1522.47248309 -148.1796875 1516.67578125 C-148.95394073 1516.49382202 -149.72819397 1516.31186279 -150.52590942 1516.12438965 C-159.32117747 1514.04439342 -168.01365508 1511.74724009 -176.66607666 1509.13523865 C-181.36990646 1507.72528012 -186.09149136 1506.49924291 -190.8671875 1505.359375 C-199.73157725 1503.21261805 -208.31439334 1500.34029968 -216.9296875 1497.36328125 C-217.74218964 1497.08476318 -218.55469177 1496.80624512 -219.39181519 1496.51928711 C-235.01944057 1491.15030565 -250.30293808 1485.08139145 -265.53662109 1478.69042969 C-268.75435116 1477.37259118 -271.99345314 1476.14883154 -275.25390625 1474.94140625 C-282.68894067 1472.10729023 -289.79358677 1468.65870921 -296.93017578 1465.15478516 C-299.16006396 1464.06041199 -301.39408177 1462.97487596 -303.62890625 1461.890625 C-311.92282233 1457.85085306 -320.12889294 1453.67126026 -328.26080322 1449.31402588 C-332.11451194 1447.24928979 -335.99066651 1445.26279645 -339.9296875 1443.36328125 C-351.69532954 1437.52881218 -362.81097548 1430.46539664 -373.80859375 1423.3125 C-376.44835648 1421.6110259 -379.10498154 1419.96693354 -381.8046875 1418.36328125 C-391.93943082 1412.32237513 -401.94005164 1406.31016563 -411.20629883 1398.98144531 C-414.85369637 1396.10052578 -418.58912564 1393.41788268 -422.4296875 1390.80078125 C-434.0505271 1382.84015819 -444.93482819 1373.94935326 -455.82080078 1365.02587891 C-457.96545053 1363.27152661 -460.11700684 1361.52592768 -462.26953125 1359.78125 C-470.12177435 1353.39475895 -477.74645797 1346.85871628 -485.12109375 1339.92578125 C-488.06764153 1337.17184508 -491.07932464 1334.51415869 -494.1484375 1331.8984375 C-495.57305836 1330.62065257 -496.94479502 1329.28399863 -498.296875 1327.9296875 C-500.97666382 1325.25387463 -503.74418539 1322.71356618 -506.5546875 1320.17578125 C-522.60825708 1305.53745068 -522.60825708 1305.53745068 -526.6171875 1299.55078125 C-528.56768353 1296.80954358 -530.09942334 1295.16890031 -532.6171875 1293.05078125 C-540.53662003 1286.38178543 -547.04278964 1278.27063353 -553.5234375 1270.23828125 C-556.22747859 1266.93724408 -559.01089984 1263.71321999 -561.8046875 1260.48828125 C-566.85778148 1254.63805003 -571.67749431 1248.63547524 -576.4140625 1242.52734375 C-578.53922561 1239.78700184 -580.72635055 1237.10382087 -582.9296875 1234.42578125 C-586.77328507 1229.64281157 -590.20691569 1224.61493603 -593.64794922 1219.54003906 C-596.8454943 1214.83563022 -600.15673118 1210.23701265 -603.5546875 1205.67578125 C-610.42492803 1196.41409368 -616.55172847 1186.73155586 -622.4296875 1176.8125 C-624.08620659 1174.03869329 -625.78785612 1171.2954649 -627.4921875 1168.55078125 C-643.88194326 1141.90563129 -643.88194326 1141.90563129 -649.62329102 1130.04272461 C-651.88936564 1125.36166686 -654.24874977 1120.7347757 -656.65625 1116.125 C-675.35347351 1080.30562853 -675.35347351 1080.30562853 -681.453125 1062.359375 C-682.97205568 1058.04387721 -684.76679366 1053.85041313 -686.53662109 1049.63305664 C-697.42387251 1023.59027805 -706.56474808 996.90500132 -713.15576172 969.45019531 C-713.93462649 966.28068252 -714.76780321 963.13070681 -715.62109375 959.98046875 C-732.11124426 898.95811836 -739.70527445 837.25078134 -739.45117188 774.09643555 C-739.42837071 768.38057053 -739.44196579 762.66545048 -739.46493721 756.94961071 C-739.67557357 695.04838953 -731.00741283 635.13693707 -715.4375 575.26428223 C-714.61096805 572.06842491 -713.80385663 568.86762786 -712.9921875 565.66796875 C-705.66329288 537.11125557 -695.82494965 509.65108833 -684.9296875 482.30078125 C-684.54191132 481.32522278 -684.54191132 481.32522278 -684.14630127 480.32995605 C-675.13911463 457.67353892 -664.77485856 435.72030317 -653.7734375 413.96484375 C-652.52246349 411.49060718 -651.2956301 409.00639073 -650.0859375 406.51171875 C-642.90433554 391.77161068 -634.9408465 377.36643676 -625.65234375 363.84375 C-624.00710192 361.41505968 -622.4843948 358.95074238 -620.9921875 356.42578125 C-615.22294649 346.69603425 -609.12073672 337.35660087 -602.25 328.3671875 C-599.72682078 325.03268298 -597.28867984 321.64685519 -594.8671875 318.23828125 C-594.44501953 317.6453125 -594.02285156 317.05234375 -593.58789062 316.44140625 C-592.75729705 315.27471202 -591.9268891 314.1078856 -591.09667969 312.94091797 C-582.10692537 300.30636368 -572.62009281 288.1714667 -562.546875 276.38671875 C-560.12276994 273.5447256 -557.77237351 270.6478806 -555.4296875 267.73828125 C-551.32929031 262.69897379 -546.99106336 257.92366049 -542.57421875 253.1640625 C-540.19911439 250.59249456 -537.86803735 247.99030566 -535.5546875 245.36328125 C-532.77943764 242.22775555 -529.93016574 239.22432415 -526.9296875 236.30078125 C-523.35554012 232.81317497 -519.89930214 229.30868522 -516.6796875 225.48828125 C-512.97683742 221.18225197 -508.82240107 217.45921921 -504.578125 213.6953125 C-501.93807198 211.30836191 -499.44047587 208.82284562 -496.9296875 206.30078125 C-489.44364654 199.08878488 -481.85173283 192.05692692 -473.7265625 185.56640625 C-470.46138196 182.9214276 -467.29195915 180.17789041 -464.1171875 177.42578125 C-448.55843007 163.99982128 -431.92552876 151.92071786 -415.23339844 139.95605469 C-413.01488612 138.36199857 -410.80397745 136.7578578 -408.59375 135.15234375 C-400.87907963 129.58556826 -393.0575283 124.46646497 -384.8034668 119.7331543 C-381.12267432 117.61709365 -377.60232251 115.44868272 -374.1796875 112.92578125 C-366.67419854 107.48365695 -358.38118322 103.1985796 -350.31445312 98.65771484 C-347.44703249 97.02615015 -344.62612825 95.32288306 -341.8046875 93.61328125 C-336.17771593 90.30893199 -330.31618794 87.58890724 -324.40307617 84.84472656 C-318.70782341 82.187873 -313.15072247 79.34050678 -307.6171875 76.36328125 C-293.55336865 68.84782731 -279.06544394 62.16065852 -264.0234375 56.84765625 C-260.40216716 55.53265646 -256.88837511 54.00020335 -253.35546875 52.46484375 C-246.20070758 49.36379957 -238.9445819 46.59501167 -231.6171875 43.92578125 C-230.97682556 43.6918869 -230.33646362 43.45799255 -229.67669678 43.2170105 C-220.68781944 39.93969139 -211.6615511 36.79988141 -202.5546875 33.86328125 C-201.61326904 33.55793457 -200.67185059 33.25258789 -199.7019043 32.93798828 C-192.20184039 30.56830605 -184.60108844 28.66760064 -176.96459961 26.80136108 C-173.74400414 26.00910812 -170.53057144 25.188984 -167.31640625 24.37109375 C-132.86123914 15.64428335 -98.39692043 8.49546342 -63.1171875 4.05078125 C-61.32631714 3.82430908 -61.32631714 3.82430908 -59.49926758 3.59326172 C-39.65088256 1.19811615 -19.99260302 -0.01429899 0 0 Z " fill="#34A753" transform="translate(738.9296875,-0.30078125)"/>
<path d="M0 0 C2.33187941 -0.00390663 4.66375812 -0.00824516 6.99563599 -0.01298523 C11.85128091 -0.02037927 16.70685305 -0.02020771 21.5625 -0.01489258 C26.4665649 -0.01027123 31.37038124 -0.01715153 36.27441406 -0.03540039 C63.37914027 -0.13540265 90.13832772 0.0235567 117.0703125 3.30078125 C119.05852017 3.52888302 121.04673059 3.75696515 123.03513527 3.98334312 C162.51596309 8.49040767 201.76637446 16.21475848 239.86328125 27.50390625 C243.88547966 28.69265189 247.9104055 29.7700009 251.98828125 30.75 C258.84402868 32.4335136 265.50644352 34.61552292 272.1953125 36.86328125 C272.83739655 37.0781015 273.47948059 37.29292175 274.14102173 37.51425171 C289.39072349 42.62661187 304.72606483 47.90669171 319.30859375 54.71875 C323.7268692 56.76699648 328.22321451 58.49712844 332.796875 60.16015625 C340.93007038 63.14054006 348.67818534 66.72938486 356.4453125 70.55078125 C357.11663208 70.87815277 357.78795166 71.20552429 358.47961426 71.54281616 C367.80711245 76.0914843 376.98648673 80.84019557 385.9921875 86 C389.52556301 88.01968017 393.12188944 89.88705758 396.74658203 91.73657227 C405.72101637 96.3293932 414.36402019 101.39404364 422.9453125 106.67578125 C424.069375 107.36623535 425.1934375 108.05668945 426.3515625 108.76806641 C431.14845977 111.74643191 435.67816287 114.74754516 440.0703125 118.30078125 C441.84347447 119.35342876 443.63667063 120.37283451 445.4453125 121.36328125 C452.32674163 125.31947437 458.59113573 129.93931508 464.93115234 134.70166016 C467.255731 136.43939015 469.59307533 138.15880372 471.93359375 139.875 C472.76560303 140.48529053 473.5976123 141.09558105 474.45483398 141.72436523 C476.06485784 142.90509148 477.67503604 144.08560732 479.28540039 145.26586914 C487.48494655 151.29926523 495.47580007 157.56322731 503.3203125 164.05078125 C504.05266113 164.65567383 504.78500977 165.26056641 505.53955078 165.88378906 C515.04234551 173.74517316 524.45834411 181.65383519 533.546875 189.99609375 C537.00535112 193.15476389 540.52860988 196.23604145 544.0703125 199.30078125 C542.54260286 203.05604517 540.28408944 205.1510875 537.2578125 207.80078125 C535.97970703 208.93 535.97970703 208.93 534.67578125 210.08203125 C532.95469261 211.54766595 531.20450294 212.97987265 529.42578125 214.375 C527.39248944 216.03737622 525.84230957 217.58942891 524.1953125 219.61328125 C520.52184513 223.90033878 516.6054716 227.91837729 512.6328125 231.92578125 C511.70202881 232.87578003 511.70202881 232.87578003 510.75244141 233.8449707 C507.6674823 236.93679245 504.59311104 239.72289387 501.03515625 242.26171875 C497.45285979 244.86324626 494.74715414 247.77697643 491.91015625 251.15917969 C488.50944886 255.11764641 484.76779595 258.74690929 481.0703125 262.42578125 C480.30203125 263.19792969 479.53375 263.97007812 478.7421875 264.765625 C474.82015888 268.6809835 470.86387546 272.4556709 466.57202148 275.96459961 C464.91576708 277.43829175 463.53834727 279.02607064 462.1328125 280.73828125 C459.45004577 283.98025265 456.48852781 286.62220415 453.28515625 289.33984375 C449.84614331 292.38461358 446.66981509 295.68093611 443.46484375 298.96875 C441.0703125 301.30078125 441.0703125 301.30078125 438.45703125 303.3828125 C436.33517963 305.08793385 434.76919856 306.69563983 433.0703125 308.80078125 C426.5464265 316.43572207 418.75766346 322.97257186 411.1953125 329.55078125 C407.85008369 332.50280957 404.96005024 335.63325908 402.078125 339.03125 C385.32588145 357.96715175 385.32588145 357.96715175 377.9765625 361.23046875 C375.94595406 362.12519529 375.94595406 362.12519529 375.27392578 364.03051758 C373.6533393 367.08727897 371.34590679 369.29146438 368.90625 371.6953125 C368.39534821 372.20575607 367.88444641 372.71619965 367.35806274 373.24211121 C366.27606658 374.32109182 365.19164651 375.39764649 364.10498047 376.47192383 C362.46662974 378.0921992 360.83624313 379.72015057 359.20703125 381.34960938 C354.24530724 386.29377833 349.23182771 391.11556133 343.90283203 395.66674805 C339.81162765 399.31482038 336.10054221 403.39263084 332.36328125 407.3984375 C331.73550781 408.04683594 331.10773438 408.69523437 330.4609375 409.36328125 C329.90438477 409.95238281 329.34783203 410.54148437 328.77441406 411.1484375 C327.0703125 412.30078125 327.0703125 412.30078125 324.9675293 412.06152344 C322.78067937 411.18464474 321.38583509 410.12161904 319.6328125 408.55078125 C319.024375 408.00808594 318.4159375 407.46539062 317.7890625 406.90625 C315.49240789 404.76096581 313.2924932 402.52296195 311.0703125 400.30078125 C305.96043625 395.53156342 300.52938157 391.38595246 294.84375 387.328125 C292.25848727 385.43833435 289.78915165 383.46400892 287.3203125 381.42578125 C268.96796734 366.66969657 247.78313525 355.07768221 226.9453125 344.23828125 C225.78563965 343.63153564 224.6259668 343.02479004 223.43115234 342.3996582 C215.15444749 338.15647772 206.74213691 334.62634915 198.0703125 331.30078125 C197.07016113 330.91043701 196.07000977 330.52009277 195.03955078 330.11791992 C172.18715809 321.23353018 149.0206449 313.62054412 125.0703125 308.30078125 C123.52947998 307.95853516 123.52947998 307.95853516 121.95751953 307.609375 C102.46871283 303.39948002 82.91940417 301.65200457 63.0703125 300.30078125 C61.53624756 300.1927417 61.53624756 300.1927417 59.97119141 300.08251953 C54.33912916 299.69765684 48.71380203 299.43690562 43.0703125 299.30078125 C42.1848877 299.27886719 41.29946289 299.25695312 40.38720703 299.234375 C22.54894611 298.86689151 4.79737482 299.83434966 -12.99169922 301.03613281 C-15.3730723 301.19617053 -17.7548311 301.35077473 -20.13720703 301.49511719 C-59.16380824 303.88078751 -97.56123955 315.50108591 -133.9296875 329.30078125 C-135.66267574 329.94684178 -137.39574237 330.59269206 -139.12890625 331.23828125 C-170.27382239 342.96384222 -200.98042488 359.11366895 -227.82958984 378.77441406 C-231.5174684 381.45479266 -235.25898864 384.05909904 -238.9921875 386.67578125 C-243.83818365 390.0737339 -248.59903534 393.54109014 -253.26342773 397.18603516 C-254.9296875 398.30078125 -254.9296875 398.30078125 -256.9296875 398.30078125 C-257.13078125 398.84734375 -257.331875 399.39390625 -257.5390625 399.95703125 C-259.49158835 403.24780515 -262.26535437 405.39571849 -265.1796875 407.80078125 C-266.45183325 408.87238357 -267.72396836 409.94399851 -268.99609375 411.015625 C-270.30705878 412.11095587 -271.61825424 413.20601103 -272.9296875 414.30078125 C-283.68959031 423.31798284 -293.9317705 432.48395355 -303.05078125 443.20703125 C-306.2524754 446.77482349 -309.7332677 450.06939846 -313.18359375 453.39453125 C-315.84781797 456.21413696 -318.1086402 459.11283215 -320.39624023 462.23486328 C-322.87774018 465.57803356 -325.53647493 468.77262001 -328.1796875 471.98828125 C-330.43415858 474.75549743 -332.68343961 477.52688666 -334.9296875 480.30078125 C-335.62747314 481.16243896 -335.62747314 481.16243896 -336.33935547 482.04150391 C-342.31917526 489.47545122 -347.47395244 497.1524856 -352.4375 505.28125 C-354.39946321 508.48150146 -356.45758392 511.59688017 -358.57788086 514.69384766 C-370.15019668 531.62051855 -379.37814547 549.70052356 -387.9296875 568.30078125 C-388.33316406 569.1712207 -388.73664063 570.04166016 -389.15234375 570.93847656 C-391.81647108 576.69536557 -394.40480894 582.48151507 -396.9296875 588.30078125 C-397.27628418 589.09484375 -397.62288086 589.88890625 -397.97998047 590.70703125 C-403.47227402 603.42005267 -407.44964779 616.31791043 -410.97167969 629.69970703 C-411.82059719 632.89071958 -412.69393852 636.07320203 -413.57943726 639.25415039 C-420.74238311 665.00907342 -426.10774767 690.74015887 -429.2421875 717.30078125 C-429.36456284 718.3376709 -429.36456284 718.3376709 -429.4894104 719.39550781 C-431.29172801 734.93261626 -432.16504899 750.41900316 -432.1796875 766.05078125 C-432.18069458 766.81380554 -432.18170166 767.57682983 -432.18273926 768.36297607 C-432.15954751 794.83771629 -429.70570099 821.25911917 -424.9296875 847.30078125 C-424.75211914 848.27273438 -424.57455078 849.2446875 -424.39160156 850.24609375 C-420.08733454 873.26356447 -413.75668492 895.91610703 -406.9296875 918.30078125 C-410.79702311 922.31600733 -414.90474719 925.86555072 -419.2421875 929.36328125 C-419.94005371 929.92837402 -420.63791992 930.4934668 -421.35693359 931.07568359 C-426.83696197 935.48452059 -432.4268033 939.73044286 -438.07202148 943.92456055 C-442.36477586 947.11593628 -446.60705059 950.36032669 -450.8046875 953.67578125 C-451.36285156 954.11664062 -451.92101562 954.5575 -452.49609375 955.01171875 C-453.66864767 955.93811575 -454.84117283 956.86454917 -456.01367188 957.79101562 C-465.59428684 965.34026676 -475.22947761 972.81157319 -485.01171875 980.09765625 C-488.3303808 982.60331274 -491.60233427 985.16316061 -494.8671875 987.73828125 C-502.75589028 993.96041741 -510.67212973 1000.14541586 -518.73828125 1006.13671875 C-525.52696334 1011.18124332 -532.21567713 1016.29482977 -538.7421875 1021.67578125 C-545.38526258 1027.15087034 -552.24449267 1032.27364048 -559.20092773 1037.34228516 C-564.40054702 1041.14137129 -569.42093203 1045.0631071 -574.3671875 1049.1875 C-581.05338818 1054.70157708 -588.035316 1059.86086111 -594.93359375 1065.10546875 C-596.74486833 1066.48297211 -598.5560646 1067.86057846 -600.3671875 1069.23828125 C-601.73339233 1070.27722534 -601.73339233 1070.27722534 -603.12719727 1071.3371582 C-608.75836898 1075.62620109 -614.34523052 1079.96465853 -619.89428711 1084.35913086 C-624.84247572 1088.26389868 -629.88422173 1092.03800277 -634.94360352 1095.79711914 C-638.30866307 1098.30521512 -641.63799416 1100.8451464 -644.9140625 1103.46875 C-645.54828125 1103.97599609 -646.1825 1104.48324219 -646.8359375 1105.00585938 C-648.03343757 1105.96867988 -649.22643787 1106.93713375 -650.4140625 1107.91210938 C-653.23760702 1110.18248351 -655.3908723 1111.58133613 -658.9296875 1112.30078125 C-676.51109829 1076.98693189 -676.51109829 1076.98693189 -681.2890625 1062.9453125 C-682.8741807 1058.31259172 -684.76249218 1053.82672978 -686.65966797 1049.31445312 C-697.53030586 1023.39538232 -706.59353677 996.78508231 -713.15576172 969.45019531 C-713.93462649 966.28068252 -714.76780321 963.13070681 -715.62109375 959.98046875 C-732.11124426 898.95811836 -739.70527445 837.25078134 -739.45117188 774.09643555 C-739.42837071 768.38057053 -739.44196579 762.66545048 -739.46493721 756.94961071 C-739.67557357 695.04838953 -731.00741283 635.13693707 -715.4375 575.26428223 C-714.61096805 572.06842491 -713.80385663 568.86762786 -712.9921875 565.66796875 C-705.66329288 537.11125557 -695.82494965 509.65108833 -684.9296875 482.30078125 C-684.54191132 481.32522278 -684.54191132 481.32522278 -684.14630127 480.32995605 C-675.13911463 457.67353892 -664.77485856 435.72030317 -653.7734375 413.96484375 C-652.52246349 411.49060718 -651.2956301 409.00639073 -650.0859375 406.51171875 C-642.90433554 391.77161068 -634.9408465 377.36643676 -625.65234375 363.84375 C-624.00710192 361.41505968 -622.4843948 358.95074238 -620.9921875 356.42578125 C-615.22294649 346.69603425 -609.12073672 337.35660087 -602.25 328.3671875 C-599.72682078 325.03268298 -597.28867984 321.64685519 -594.8671875 318.23828125 C-594.44501953 317.6453125 -594.02285156 317.05234375 -593.58789062 316.44140625 C-592.75729705 315.27471202 -591.9268891 314.1078856 -591.09667969 312.94091797 C-582.10692537 300.30636368 -572.62009281 288.1714667 -562.546875 276.38671875 C-560.12276994 273.5447256 -557.77237351 270.6478806 -555.4296875 267.73828125 C-551.32929031 262.69897379 -546.99106336 257.92366049 -542.57421875 253.1640625 C-540.19911439 250.59249456 -537.86803735 247.99030566 -535.5546875 245.36328125 C-532.77943764 242.22775555 -529.93016574 239.22432415 -526.9296875 236.30078125 C-523.35554012 232.81317497 -519.89930214 229.30868522 -516.6796875 225.48828125 C-512.97683742 221.18225197 -508.82240107 217.45921921 -504.578125 213.6953125 C-501.93807198 211.30836191 -499.44047587 208.82284562 -496.9296875 206.30078125 C-489.44364654 199.08878488 -481.85173283 192.05692692 -473.7265625 185.56640625 C-470.46138196 182.9214276 -467.29195915 180.17789041 -464.1171875 177.42578125 C-448.55843007 163.99982128 -431.92552876 151.92071786 -415.23339844 139.95605469 C-413.01488612 138.36199857 -410.80397745 136.7578578 -408.59375 135.15234375 C-400.87907963 129.58556826 -393.0575283 124.46646497 -384.8034668 119.7331543 C-381.12267432 117.61709365 -377.60232251 115.44868272 -374.1796875 112.92578125 C-366.67419854 107.48365695 -358.38118322 103.1985796 -350.31445312 98.65771484 C-347.44703249 97.02615015 -344.62612825 95.32288306 -341.8046875 93.61328125 C-336.17771593 90.30893199 -330.31618794 87.58890724 -324.40307617 84.84472656 C-318.70782341 82.187873 -313.15072247 79.34050678 -307.6171875 76.36328125 C-293.55336865 68.84782731 -279.06544394 62.16065852 -264.0234375 56.84765625 C-260.40216716 55.53265646 -256.88837511 54.00020335 -253.35546875 52.46484375 C-246.20070758 49.36379957 -238.9445819 46.59501167 -231.6171875 43.92578125 C-230.97682556 43.6918869 -230.33646362 43.45799255 -229.67669678 43.2170105 C-220.68781944 39.93969139 -211.6615511 36.79988141 -202.5546875 33.86328125 C-201.61326904 33.55793457 -200.67185059 33.25258789 -199.7019043 32.93798828 C-192.20184039 30.56830605 -184.60108844 28.66760064 -176.96459961 26.80136108 C-173.74400414 26.00910812 -170.53057144 25.188984 -167.31640625 24.37109375 C-132.86123914 15.64428335 -98.39692043 8.49546342 -63.1171875 4.05078125 C-61.32631714 3.82430908 -61.32631714 3.82430908 -59.49926758 3.59326172 C-39.65088256 1.19811615 -19.99260302 -0.01429899 0 0 Z " fill="#EB4334" transform="translate(738.9296875,-0.30078125)"/>
<path d="M0 0 C238.59 0 477.18 0 723 0 C726.08016012 12.9366725 729.02218875 25.60392423 731.125 38.6875 C731.25040161 39.45581146 731.37580322 40.22412292 731.50500488 41.01571655 C737.52327003 77.96761752 739.36461049 114.67829053 739.31567383 152.05639648 C739.31106371 155.87422537 739.31790726 159.69173397 739.33618164 163.50952148 C739.49861027 197.82244865 738.03677118 231.99258819 733.75 266.0625 C733.64773102 266.89791321 733.54546204 267.73332642 733.44009399 268.59405518 C728.75037967 306.71937635 721.50599656 344.50278118 711.421875 381.57421875 C710.40723839 385.32513406 709.52260892 389.09390517 708.67250061 392.88534546 C706.46187951 402.6588283 703.54140617 412.08247132 700.3125 421.5625 C699.77884243 423.14587127 699.2453156 424.7292866 698.71191406 426.31274414 C694.72672777 438.08962247 690.49679819 449.76124065 686.01171875 461.35742188 C685.02556051 463.93323672 684.07044628 466.51837347 683.125 469.109375 C674.94683854 491.37333787 664.90276647 512.94869037 654 534 C653.60248535 534.77424316 653.2049707 535.54848633 652.79541016 536.34619141 C643.84590338 553.75901445 634.31177671 570.75699163 623.51342773 587.09545898 C620.60808445 591.49507945 617.83674334 595.90599162 615.25 600.5 C612.06102773 606.07876172 608.31124985 611.08384042 604.39404297 616.16845703 C601.54697438 619.90903646 598.78163207 623.71067535 596 627.5 C593.66795759 630.66761855 591.33427218 633.83402432 589 637 C588.55060059 637.60972656 588.10120117 638.21945312 587.63818359 638.84765625 C580.23366372 648.87442506 572.49947827 658.47732293 564.00732422 667.59863281 C561.27424253 670.55161763 558.70852333 673.56618562 556.25 676.75 C552.56293283 681.45024885 548.57259923 685.82271429 544.5 690.1875 C543.88286133 690.85297852 543.26572266 691.51845703 542.62988281 692.20410156 C538.88310273 696.18443688 534.99237103 699.8565214 530.80981445 703.37719727 C528.29569164 705.63153078 526.18574868 708.16137133 524.0078125 710.734375 C519.89943693 715.37028517 515.41423795 719.65760318 511 724 C510.67 723.34 510.34 722.68 510 722 C509.27683594 721.72027344 508.55367187 721.44054688 507.80859375 721.15234375 C504.39883169 719.75334541 501.95703474 717.84381678 499.0625 715.5625 C498.49966309 715.12147949 497.93682617 714.68045898 497.35693359 714.22607422 C496.16677513 713.2924296 494.97865919 712.3561761 493.79248047 711.41748047 C492.05549294 710.04388341 490.31219606 708.67879126 488.56640625 707.31640625 C483.74269908 703.54694129 478.93482656 699.75917629 474.16796875 695.91796875 C465.9915186 689.32601866 465.9915186 689.32601866 457.5625 683.0625 C452.99298187 679.79759282 448.64937017 676.31319042 444.3125 672.75 C438.27950325 667.79552781 432.13463443 663.03761282 425.8671875 658.38427734 C421.46382582 655.11095323 417.1174282 651.77669149 412.8125 648.375 C404.94912001 642.16190458 397.00592177 636.05623123 389.0390625 629.9765625 C364.11685561 610.95453236 364.11685561 610.95453236 352.625 601.6875 C349.26553064 598.97935634 345.84258835 596.38074057 342.375 593.8125 C337.55820533 590.22762212 332.89026693 586.49736197 328.25 582.6875 C320.88992916 576.64985199 313.32379661 570.92946 305.68164062 565.25585938 C302.83558629 563.13040881 300.03878688 560.94369633 297.2421875 558.75390625 C286.9362906 550.69232488 276.4816111 542.83093409 266 535 C270.17832757 530.57197158 274.79270958 526.94030494 279.625 523.25 C281.23899227 522.00482733 282.85227528 520.75873477 284.46484375 519.51171875 C285.24327637 518.91020996 286.02170898 518.30870117 286.82373047 517.68896484 C293.30764643 512.6569107 299.63046586 507.5759006 305.33984375 501.6640625 C307.07270705 499.92712187 308.88313833 498.34154672 310.75 496.75 C317.99698559 490.48804158 324.81188601 483.61709122 331.015625 476.3203125 C332.60804484 474.45830978 334.22338914 472.62797575 335.859375 470.8046875 C343.61360231 462.10606545 350.60502961 453.04090007 357.26708984 443.48339844 C358.46173708 441.77137368 359.6629934 440.06394821 360.86962891 438.36035156 C369.10119889 426.73416953 376.48124799 415.06580742 382.83056641 402.31347656 C384.40949289 399.18990508 386.0758063 396.11638216 387.73901367 393.03710938 C389.87815588 389.05122272 391.95080039 385.0327608 394 381 C394.4125 380.18821289 394.825 379.37642578 395.25 378.54003906 C409.65281607 349.72315473 417.43378176 317.54190337 423 286 C283.41 286 143.82 286 0 286 C0 191.62 0 97.24 0 0 Z " fill="#4185F3" transform="translate(767,627)"/>
<path d="M0 0 C4.13601516 2.70195038 8.0904495 5.53559036 12 8.5625 C12.55397461 8.99087158 13.10794922 9.41924316 13.67871094 9.8605957 C19.06803602 14.03543563 24.42601133 18.25033569 29.78125 22.46875 C32.42861427 24.55324009 35.08621911 26.62400776 37.75 28.6875 C40.79807977 31.05074417 43.81054855 33.45345755 46.8125 35.875 C51.41875419 39.57137682 56.12621527 43.11677216 60.859375 46.6484375 C68.12129519 52.0858454 75.32840031 57.58279757 82.3125 63.375 C87.46890989 67.63431519 92.7971189 71.63227223 98.16064453 75.62402344 C102.68605342 78.99733371 107.12550115 82.45460765 111.51171875 86.0078125 C114.47570576 88.38086333 117.4848939 90.69261417 120.5 93 C124.36622563 95.96005273 128.20721637 98.94607032 132 102 C137.92375549 106.76580005 143.96331489 111.37898221 150 116 C162.34076616 125.4467243 162.34076616 125.4467243 168.0625 130.0625 C172.64031275 133.7499764 177.33778898 137.2613229 182.05078125 140.7734375 C185.6405124 143.48356566 189.1473401 146.28626789 192.6484375 149.109375 C196.39486384 152.12145199 200.19524954 155.06215471 204 158 C205.0003125 158.7734375 206.000625 159.546875 207.03125 160.34375 C212.34179247 164.44269493 217.67185807 168.50640925 223.0625 172.5 C227.22523887 175.60283306 231.23156171 178.83014522 235.1875 182.1875 C239.91177397 186.17730186 244.74904903 189.73804561 250 193 C249.4093849 197.73543394 248.49286646 202.1589569 247.14453125 206.734375 C246.76815437 208.02918058 246.39219534 209.32410767 246.01660156 210.61914062 C245.82005981 211.29178955 245.62351807 211.96443848 245.42102051 212.6574707 C233.11719186 254.96684497 225.79132987 298.61577452 225.75 342.75 C225.74848938 343.89453644 225.74848938 343.89453644 225.74694824 345.06219482 C225.77013999 371.53693504 228.22398651 397.95833792 233 424 C233.17756836 424.97195313 233.35513672 425.94390625 233.53808594 426.9453125 C237.84235296 449.96278322 244.17300258 472.61532578 251 495 C247.13266439 499.01522608 243.02494031 502.56476947 238.6875 506.0625 C237.98963379 506.62759277 237.29176758 507.19268555 236.57275391 507.77490234 C231.09272553 512.18373934 225.5028842 516.42966161 219.85766602 520.6237793 C215.56491164 523.81515503 211.32263691 527.05954544 207.125 530.375 C206.56683594 530.81585937 206.00867188 531.25671875 205.43359375 531.7109375 C204.26103983 532.6373345 203.08851467 533.56376792 201.91601562 534.49023438 C192.33540066 542.03948551 182.70020989 549.51079194 172.91796875 556.796875 C169.5993067 559.30253149 166.32735323 561.86237936 163.0625 564.4375 C155.17379722 570.65963616 147.25755777 576.84463461 139.19140625 582.8359375 C132.40272416 587.88046207 125.71401037 592.99404852 119.1875 598.375 C112.54442492 603.85008909 105.68519483 608.97285923 98.72875977 614.04150391 C93.52914048 617.84059004 88.50875547 621.76232585 83.5625 625.88671875 C76.87629932 631.40079583 69.8943715 636.56007986 62.99609375 641.8046875 C61.18481917 643.18219086 59.3736229 644.55979721 57.5625 645.9375 C56.65169678 646.63012939 55.74089355 647.32275879 54.80249023 648.03637695 C49.17131852 652.32541984 43.58445698 656.66387728 38.03540039 661.05834961 C33.08721178 664.96311743 28.04546577 668.73722152 22.98608398 672.49633789 C19.62102443 675.00443387 16.29169334 677.54436515 13.015625 680.16796875 C12.38140625 680.67521484 11.7471875 681.18246094 11.09375 681.70507812 C9.89624993 682.66789863 8.70324963 683.6363525 7.515625 684.61132812 C4.69208048 686.88170226 2.5388152 688.28055488 -1 689 C-18.58141079 653.68615064 -18.58141079 653.68615064 -23.359375 639.64453125 C-24.9444932 635.01181047 -26.83280468 630.52594853 -28.72998047 626.01367188 C-39.60061836 600.09460107 -48.66384927 573.48430106 -55.22607422 546.14941406 C-56.00493899 542.97990127 -56.83811571 539.82992556 -57.69140625 536.6796875 C-74.18155676 475.65733711 -81.77558695 413.95000009 -81.52148438 350.7956543 C-81.49868321 345.07978928 -81.51227829 339.36466923 -81.53524971 333.64882946 C-81.74588607 271.74760828 -73.07772533 211.83615582 -57.5078125 151.96350098 C-56.68128055 148.76764366 -55.87416913 145.56684661 -55.0625 142.3671875 C-47.73360538 113.81047432 -37.89526215 86.35030708 -27 59 C-26.74148254 58.34962769 -26.48296509 57.69925537 -26.21661377 57.0291748 C-20.50800838 42.66991369 -14.35815314 28.62691964 -7.6875 14.6875 C-6.89545166 13.03065186 -6.89545166 13.03065186 -6.08740234 11.34033203 C-5.58805176 10.30376465 -5.08870117 9.26719727 -4.57421875 8.19921875 C-4.12651123 7.26940186 -3.67880371 6.33958496 -3.2175293 5.3815918 C-2 3 -2 3 0 0 Z " fill="#FABB05" transform="translate(81,423)"/>
</svg>
